<svg width="30" height="30" viewBox="0 0 30 30" fill="none" xmlns="http://www.w3.org/2000/svg">
<g id="checkbox-select">
<path id="Vector" d="M6.25 26.25C5.5625 26.25 4.97396 26.0052 4.48438 25.5156C3.99479 25.026 3.75 24.4375 3.75 23.75V6.25C3.75 5.5625 3.99479 4.97396 4.48438 4.48438C4.97396 3.99479 5.5625 3.75 6.25 3.75H23.75C23.9167 3.75 24.0729 3.76562 24.2188 3.79688C24.3646 3.82812 24.5104 3.875 24.6562 3.9375L22.3438 6.25H6.25V23.75H23.75V15.4375L26.25 12.9375V23.75C26.25 24.4375 26.0052 25.026 25.5156 25.5156C25.026 26.0052 24.4375 26.25 23.75 26.25H6.25ZM14.4062 21.25L7.34375 14.1875L9.09375 12.4375L14.4062 17.75L25.875 6.28125L27.6562 8L14.4062 21.25Z" fill="#E50046"/>
</g>
</svg>
